<mxfile host="app.diagrams.net" agent="Mozilla/5.0 (X11; Linux x86_64) AppleWebKit/537.36 (KHTML, like Gecko) Chrome/132.0.0.0 Safari/537.36" version="26.0.11" pages="4">
  <diagram id="NMhR2VgDH_q-dbBwxF6J" name="Core">
    <mxGraphModel dx="1809" dy="1718" grid="1" gridSize="10" guides="1" tooltips="1" connect="1" arrows="1" fold="1" page="1" pageScale="1" pageWidth="827" pageHeight="1169" math="0" shadow="0">
      <root>
        <mxCell id="0" />
        <mxCell id="1" parent="0" />
        <mxCell id="hncAvz_7t7Qo_2eILnNB-1" value="B" style="rounded=0;whiteSpace=wrap;html=1;fillColor=none;labelPosition=center;verticalLabelPosition=top;align=center;verticalAlign=bottom;fontColor=#333333;strokeColor=#666666;" parent="1" vertex="1">
          <mxGeometry x="310" y="-10" width="150" height="110" as="geometry" />
        </mxCell>
        <mxCell id="F1Z5j1O0vXJ2bHmUh1ND-13" value="A" style="rounded=0;whiteSpace=wrap;html=1;fillColor=none;labelPosition=center;verticalLabelPosition=bottom;align=center;verticalAlign=top;fontColor=#333333;strokeColor=#666666;" parent="1" vertex="1">
          <mxGeometry x="310" y="100" width="150" height="80" as="geometry" />
        </mxCell>
        <mxCell id="hncAvz_7t7Qo_2eILnNB-2" value="C" style="rounded=0;whiteSpace=wrap;html=1;fillColor=none;labelPosition=center;verticalLabelPosition=top;align=center;verticalAlign=bottom;fontColor=#333333;strokeColor=#666666;" parent="1" vertex="1">
          <mxGeometry x="560" y="40" width="220" height="120" as="geometry" />
        </mxCell>
        <mxCell id="nFlebC-8E2U5Z7Vgu-yv-2" style="edgeStyle=orthogonalEdgeStyle;rounded=0;orthogonalLoop=1;jettySize=auto;html=1;entryX=0.75;entryY=0;entryDx=0;entryDy=0;strokeWidth=2;exitX=0.25;exitY=1;exitDx=0;exitDy=0;fillColor=#1ba1e2;strokeColor=#006EAF;" parent="1" source="sHq0dSv3WL6oQNOAlgIy-1" target="F1Z5j1O0vXJ2bHmUh1ND-6" edge="1">
          <mxGeometry relative="1" as="geometry">
            <mxPoint x="410" y="130" as="targetPoint" />
            <Array as="points">
              <mxPoint x="320" y="130" />
              <mxPoint x="320" y="120" />
            </Array>
          </mxGeometry>
        </mxCell>
        <mxCell id="kpL3JhKYGGDNCPcOYrwn-55" value="R1" style="edgeLabel;html=1;align=center;verticalAlign=middle;resizable=0;points=[];" parent="nFlebC-8E2U5Z7Vgu-yv-2" vertex="1" connectable="0">
          <mxGeometry relative="1" as="geometry">
            <mxPoint as="offset" />
          </mxGeometry>
        </mxCell>
        <mxCell id="sHq0dSv3WL6oQNOAlgIy-1" value="REG BANK" style="rounded=0;whiteSpace=wrap;html=1;direction=north;textDirection=vertical-lr;" parent="1" vertex="1">
          <mxGeometry x="240" y="40" width="60" height="120" as="geometry" />
        </mxCell>
        <mxCell id="nFlebC-8E2U5Z7Vgu-yv-3" style="edgeStyle=orthogonalEdgeStyle;rounded=0;orthogonalLoop=1;jettySize=auto;html=1;strokeWidth=2;entryX=0.75;entryY=0;entryDx=0;entryDy=0;" parent="1" source="nFlebC-8E2U5Z7Vgu-yv-1" target="kpL3JhKYGGDNCPcOYrwn-3" edge="1">
          <mxGeometry relative="1" as="geometry">
            <mxPoint x="370" y="100" as="targetPoint" />
            <Array as="points">
              <mxPoint x="120" y="55" />
              <mxPoint x="120" y="20" />
              <mxPoint x="400" y="20" />
              <mxPoint x="400" y="45" />
            </Array>
          </mxGeometry>
        </mxCell>
        <mxCell id="nFlebC-8E2U5Z7Vgu-yv-6" style="edgeStyle=orthogonalEdgeStyle;rounded=0;orthogonalLoop=1;jettySize=auto;html=1;exitX=0.425;exitY=-0.012;exitDx=0;exitDy=0;exitPerimeter=0;" parent="1" source="nFlebC-8E2U5Z7Vgu-yv-4" edge="1">
          <mxGeometry relative="1" as="geometry">
            <mxPoint x="240" y="90" as="targetPoint" />
          </mxGeometry>
        </mxCell>
        <mxCell id="kpL3JhKYGGDNCPcOYrwn-52" value="RS1" style="edgeLabel;html=1;align=center;verticalAlign=middle;resizable=0;points=[];" parent="nFlebC-8E2U5Z7Vgu-yv-6" vertex="1" connectable="0">
          <mxGeometry relative="1" as="geometry">
            <mxPoint as="offset" />
          </mxGeometry>
        </mxCell>
        <mxCell id="nFlebC-8E2U5Z7Vgu-yv-7" style="edgeStyle=orthogonalEdgeStyle;rounded=0;orthogonalLoop=1;jettySize=auto;html=1;exitX=0.368;exitY=-0.013;exitDx=0;exitDy=0;entryX=0.632;entryY=0.013;entryDx=0;entryDy=0;entryPerimeter=0;exitPerimeter=0;" parent="1" edge="1">
          <mxGeometry relative="1" as="geometry">
            <mxPoint x="100" y="100" as="sourcePoint" />
            <mxPoint x="240" y="100" as="targetPoint" />
          </mxGeometry>
        </mxCell>
        <mxCell id="kpL3JhKYGGDNCPcOYrwn-53" value="RS2" style="edgeLabel;html=1;align=center;verticalAlign=middle;resizable=0;points=[];" parent="nFlebC-8E2U5Z7Vgu-yv-7" vertex="1" connectable="0">
          <mxGeometry relative="1" as="geometry">
            <mxPoint as="offset" />
          </mxGeometry>
        </mxCell>
        <mxCell id="kpL3JhKYGGDNCPcOYrwn-7" style="edgeStyle=orthogonalEdgeStyle;rounded=0;orthogonalLoop=1;jettySize=auto;html=1;exitX=0.669;exitY=0.012;exitDx=0;exitDy=0;entryX=1;entryY=0.75;entryDx=0;entryDy=0;exitPerimeter=0;" parent="1" source="nFlebC-8E2U5Z7Vgu-yv-4" target="rwtQKl1CALkP6kY6kDD2-2" edge="1">
          <mxGeometry relative="1" as="geometry">
            <Array as="points">
              <mxPoint x="200" y="120" />
              <mxPoint x="200" y="240" />
              <mxPoint x="497" y="240" />
            </Array>
          </mxGeometry>
        </mxCell>
        <mxCell id="kpL3JhKYGGDNCPcOYrwn-51" value="ALU OP" style="edgeLabel;html=1;align=center;verticalAlign=middle;resizable=0;points=[];" parent="kpL3JhKYGGDNCPcOYrwn-7" vertex="1" connectable="0">
          <mxGeometry relative="1" as="geometry">
            <mxPoint as="offset" />
          </mxGeometry>
        </mxCell>
        <mxCell id="kpL3JhKYGGDNCPcOYrwn-48" style="edgeStyle=orthogonalEdgeStyle;rounded=0;orthogonalLoop=1;jettySize=auto;html=1;" parent="1" source="nFlebC-8E2U5Z7Vgu-yv-4" target="kpL3JhKYGGDNCPcOYrwn-47" edge="1">
          <mxGeometry relative="1" as="geometry" />
        </mxCell>
        <mxCell id="kpL3JhKYGGDNCPcOYrwn-49" value="OP" style="edgeLabel;html=1;align=center;verticalAlign=middle;resizable=0;points=[];" parent="kpL3JhKYGGDNCPcOYrwn-48" vertex="1" connectable="0">
          <mxGeometry x="-0.7317" y="-2" relative="1" as="geometry">
            <mxPoint as="offset" />
          </mxGeometry>
        </mxCell>
        <mxCell id="kpL3JhKYGGDNCPcOYrwn-6" style="edgeStyle=orthogonalEdgeStyle;rounded=0;orthogonalLoop=1;jettySize=auto;html=1;exitX=0.5;exitY=1;exitDx=0;exitDy=0;entryX=0.25;entryY=1;entryDx=0;entryDy=0;strokeWidth=2;" parent="1" source="kpL3JhKYGGDNCPcOYrwn-3" target="rwtQKl1CALkP6kY6kDD2-2" edge="1">
          <mxGeometry relative="1" as="geometry">
            <Array as="points">
              <mxPoint x="460" y="60" />
              <mxPoint x="460" y="70" />
            </Array>
          </mxGeometry>
        </mxCell>
        <mxCell id="kpL3JhKYGGDNCPcOYrwn-3" value="" style="verticalLabelPosition=middle;verticalAlign=middle;html=1;shape=trapezoid;perimeter=trapezoidPerimeter;whiteSpace=wrap;size=0.1875;arcSize=10;flipV=1;labelPosition=center;align=center;rotation=-90;" parent="1" vertex="1">
          <mxGeometry x="400" y="45" width="60" height="30" as="geometry" />
        </mxCell>
        <mxCell id="kpL3JhKYGGDNCPcOYrwn-8" style="edgeStyle=orthogonalEdgeStyle;rounded=0;orthogonalLoop=1;jettySize=auto;html=1;exitX=0.5;exitY=0;exitDx=0;exitDy=0;entryX=0.5;entryY=0;entryDx=0;entryDy=0;strokeWidth=2;" parent="1" source="rwtQKl1CALkP6kY6kDD2-2" target="kpL3JhKYGGDNCPcOYrwn-9" edge="1">
          <mxGeometry relative="1" as="geometry" />
        </mxCell>
        <mxCell id="kpL3JhKYGGDNCPcOYrwn-25" style="edgeStyle=orthogonalEdgeStyle;rounded=0;orthogonalLoop=1;jettySize=auto;html=1;exitX=0.75;exitY=1;exitDx=0;exitDy=0;entryX=0.25;entryY=1;entryDx=0;entryDy=0;strokeWidth=2;" parent="1" source="kpL3JhKYGGDNCPcOYrwn-9" target="kpL3JhKYGGDNCPcOYrwn-13" edge="1">
          <mxGeometry relative="1" as="geometry" />
        </mxCell>
        <mxCell id="kpL3JhKYGGDNCPcOYrwn-58" value="ADDR" style="edgeLabel;html=1;align=center;verticalAlign=middle;resizable=0;points=[];" parent="kpL3JhKYGGDNCPcOYrwn-25" vertex="1" connectable="0">
          <mxGeometry x="-0.0839" relative="1" as="geometry">
            <mxPoint as="offset" />
          </mxGeometry>
        </mxCell>
        <mxCell id="kpL3JhKYGGDNCPcOYrwn-27" style="edgeStyle=orthogonalEdgeStyle;rounded=0;orthogonalLoop=1;jettySize=auto;html=1;exitX=0.5;exitY=1;exitDx=0;exitDy=0;entryX=0.5;entryY=0;entryDx=0;entryDy=0;strokeWidth=2;" parent="1" source="kpL3JhKYGGDNCPcOYrwn-9" target="kpL3JhKYGGDNCPcOYrwn-11" edge="1">
          <mxGeometry relative="1" as="geometry" />
        </mxCell>
        <mxCell id="kpL3JhKYGGDNCPcOYrwn-9" value="" style="verticalLabelPosition=middle;verticalAlign=middle;html=1;shape=trapezoid;perimeter=trapezoidPerimeter;whiteSpace=wrap;size=0.1875;arcSize=10;flipV=0;labelPosition=center;align=center;rotation=-90;flipH=0;" parent="1" vertex="1">
          <mxGeometry x="550" y="85" width="80" height="30" as="geometry" />
        </mxCell>
        <mxCell id="kpL3JhKYGGDNCPcOYrwn-20" style="edgeStyle=orthogonalEdgeStyle;rounded=0;orthogonalLoop=1;jettySize=auto;html=1;exitX=0.5;exitY=1;exitDx=0;exitDy=0;entryX=0.25;entryY=0;entryDx=0;entryDy=0;strokeWidth=2;" parent="1" source="kpL3JhKYGGDNCPcOYrwn-11" target="sHq0dSv3WL6oQNOAlgIy-1" edge="1">
          <mxGeometry relative="1" as="geometry">
            <Array as="points">
              <mxPoint x="800" y="100" />
              <mxPoint x="800" y="200" />
              <mxPoint x="220" y="200" />
              <mxPoint x="220" y="130" />
            </Array>
          </mxGeometry>
        </mxCell>
        <mxCell id="kpL3JhKYGGDNCPcOYrwn-11" value="" style="verticalLabelPosition=middle;verticalAlign=middle;html=1;shape=trapezoid;perimeter=trapezoidPerimeter;whiteSpace=wrap;size=0.1875;arcSize=10;flipV=1;labelPosition=center;align=center;rotation=-90;flipH=0;" parent="1" vertex="1">
          <mxGeometry x="710" y="85" width="80" height="30" as="geometry" />
        </mxCell>
        <mxCell id="kpL3JhKYGGDNCPcOYrwn-26" style="edgeStyle=orthogonalEdgeStyle;rounded=0;orthogonalLoop=1;jettySize=auto;html=1;exitX=0.75;exitY=1;exitDx=0;exitDy=0;entryX=0.75;entryY=0;entryDx=0;entryDy=0;strokeWidth=2;" parent="1" source="kpL3JhKYGGDNCPcOYrwn-13" target="kpL3JhKYGGDNCPcOYrwn-11" edge="1">
          <mxGeometry relative="1" as="geometry" />
        </mxCell>
        <mxCell id="kpL3JhKYGGDNCPcOYrwn-57" value="DATA IN" style="edgeLabel;html=1;align=center;verticalAlign=middle;resizable=0;points=[];" parent="kpL3JhKYGGDNCPcOYrwn-26" vertex="1" connectable="0">
          <mxGeometry x="-0.4673" relative="1" as="geometry">
            <mxPoint as="offset" />
          </mxGeometry>
        </mxCell>
        <mxCell id="kpL3JhKYGGDNCPcOYrwn-13" value="MEM UNIT" style="rounded=0;whiteSpace=wrap;html=1;flipV=0;" parent="1" vertex="1">
          <mxGeometry x="590" y="-50" width="160" height="40" as="geometry" />
        </mxCell>
        <mxCell id="kpL3JhKYGGDNCPcOYrwn-19" style="edgeStyle=orthogonalEdgeStyle;rounded=0;orthogonalLoop=1;jettySize=auto;html=1;exitX=0.75;exitY=1;exitDx=0;exitDy=0;strokeWidth=2;entryX=0;entryY=0.5;entryDx=0;entryDy=0;fillColor=#60a917;strokeColor=#2D7600;" parent="1" source="sHq0dSv3WL6oQNOAlgIy-1" target="kpL3JhKYGGDNCPcOYrwn-13" edge="1">
          <mxGeometry relative="1" as="geometry">
            <mxPoint x="550" y="-100" as="targetPoint" />
            <Array as="points">
              <mxPoint x="330" y="70" />
              <mxPoint x="330" y="-30" />
            </Array>
            <mxPoint x="365" y="45" as="sourcePoint" />
          </mxGeometry>
        </mxCell>
        <mxCell id="kpL3JhKYGGDNCPcOYrwn-56" value="DATA OUT" style="edgeLabel;html=1;align=center;verticalAlign=middle;resizable=0;points=[];" parent="kpL3JhKYGGDNCPcOYrwn-19" vertex="1" connectable="0">
          <mxGeometry x="0.2002" y="2" relative="1" as="geometry">
            <mxPoint as="offset" />
          </mxGeometry>
        </mxCell>
        <mxCell id="rwtQKl1CALkP6kY6kDD2-2" value="A&amp;nbsp; &amp;nbsp; &amp;nbsp; &amp;nbsp; &amp;nbsp; &amp;nbsp; &amp;nbsp; &amp;nbsp; &amp;nbsp;B" style="shape=trapezoid;perimeter=trapezoidPerimeter;whiteSpace=wrap;html=1;fixedSize=1;direction=west;size=30;rotation=-90;labelPosition=center;verticalLabelPosition=middle;align=center;verticalAlign=top;labelBorderColor=none;textShadow=0;flipV=0;flipH=0;" parent="1" vertex="1">
          <mxGeometry x="450" y="70" width="120" height="60" as="geometry" />
        </mxCell>
        <mxCell id="rwtQKl1CALkP6kY6kDD2-5" value="" style="triangle;whiteSpace=wrap;html=1;rotation=0;" parent="1" vertex="1">
          <mxGeometry x="480" y="90" width="20" height="20" as="geometry" />
        </mxCell>
        <mxCell id="kpL3JhKYGGDNCPcOYrwn-24" style="edgeStyle=orthogonalEdgeStyle;rounded=0;orthogonalLoop=1;jettySize=auto;html=1;exitX=1;exitY=0.25;exitDx=0;exitDy=0;strokeWidth=2;entryX=0;entryY=0.5;entryDx=0;entryDy=0;" parent="1" source="nvjk1FdQRk36nMy8JmEz-1" target="ILtyUZUsakUtdtW_zUv3-5" edge="1">
          <mxGeometry relative="1" as="geometry">
            <mxPoint x="-30" y="100" as="targetPoint" />
            <mxPoint x="-122.80000000000018" y="99.83999999999992" as="sourcePoint" />
          </mxGeometry>
        </mxCell>
        <mxCell id="TYaZw21MfKf-qoarmeTp-1" value="IDATA IN" style="edgeLabel;html=1;align=center;verticalAlign=middle;resizable=0;points=[];" parent="kpL3JhKYGGDNCPcOYrwn-24" vertex="1" connectable="0">
          <mxGeometry relative="1" as="geometry">
            <mxPoint as="offset" />
          </mxGeometry>
        </mxCell>
        <mxCell id="kpL3JhKYGGDNCPcOYrwn-47" value="CONTROL UNIT" style="ellipse;whiteSpace=wrap;html=1;" parent="1" vertex="1">
          <mxGeometry x="10" y="330" width="120" height="80" as="geometry" />
        </mxCell>
        <mxCell id="kpL3JhKYGGDNCPcOYrwn-91" value="" style="group" parent="1" vertex="1" connectable="0">
          <mxGeometry x="560" y="240" width="380" height="130" as="geometry" />
        </mxCell>
        <mxCell id="kpL3JhKYGGDNCPcOYrwn-85" value="" style="rounded=0;whiteSpace=wrap;html=1;" parent="kpL3JhKYGGDNCPcOYrwn-91" vertex="1">
          <mxGeometry width="380" height="130" as="geometry" />
        </mxCell>
        <mxCell id="kpL3JhKYGGDNCPcOYrwn-62" style="edgeStyle=orthogonalEdgeStyle;rounded=0;orthogonalLoop=1;jettySize=auto;html=1;strokeWidth=2;" parent="kpL3JhKYGGDNCPcOYrwn-91" source="kpL3JhKYGGDNCPcOYrwn-65" target="kpL3JhKYGGDNCPcOYrwn-68" edge="1">
          <mxGeometry relative="1" as="geometry" />
        </mxCell>
        <mxCell id="kpL3JhKYGGDNCPcOYrwn-65" value="PC" style="whiteSpace=wrap;html=1;" parent="kpL3JhKYGGDNCPcOYrwn-91" vertex="1">
          <mxGeometry x="90" y="40" width="50" height="30" as="geometry" />
        </mxCell>
        <mxCell id="kpL3JhKYGGDNCPcOYrwn-66" value="" style="edgeStyle=orthogonalEdgeStyle;rounded=0;orthogonalLoop=1;jettySize=auto;html=1;strokeWidth=2;entryX=0.5;entryY=0;entryDx=0;entryDy=0;" parent="kpL3JhKYGGDNCPcOYrwn-91" source="kpL3JhKYGGDNCPcOYrwn-68" target="kpL3JhKYGGDNCPcOYrwn-80" edge="1">
          <mxGeometry relative="1" as="geometry">
            <mxPoint x="310" y="100" as="targetPoint" />
          </mxGeometry>
        </mxCell>
        <mxCell id="kpL3JhKYGGDNCPcOYrwn-67" value="NEXT_PC" style="edgeLabel;html=1;align=center;verticalAlign=middle;resizable=0;points=[];" parent="kpL3JhKYGGDNCPcOYrwn-66" vertex="1" connectable="0">
          <mxGeometry relative="1" as="geometry">
            <mxPoint as="offset" />
          </mxGeometry>
        </mxCell>
        <mxCell id="kpL3JhKYGGDNCPcOYrwn-68" value="+" style="ellipse;whiteSpace=wrap;html=1;aspect=fixed;" parent="kpL3JhKYGGDNCPcOYrwn-91" vertex="1">
          <mxGeometry x="200" y="35" width="40" height="40" as="geometry" />
        </mxCell>
        <mxCell id="kpL3JhKYGGDNCPcOYrwn-79" style="edgeStyle=orthogonalEdgeStyle;rounded=0;orthogonalLoop=1;jettySize=auto;html=1;" parent="kpL3JhKYGGDNCPcOYrwn-91" source="kpL3JhKYGGDNCPcOYrwn-76" target="kpL3JhKYGGDNCPcOYrwn-65" edge="1">
          <mxGeometry relative="1" as="geometry" />
        </mxCell>
        <mxCell id="kpL3JhKYGGDNCPcOYrwn-76" value="" style="verticalLabelPosition=middle;verticalAlign=middle;html=1;shape=trapezoid;perimeter=trapezoidPerimeter;whiteSpace=wrap;size=0.1875;arcSize=10;flipV=1;labelPosition=center;align=center;rotation=-90;flipH=0;" parent="kpL3JhKYGGDNCPcOYrwn-91" vertex="1">
          <mxGeometry x="10" y="40" width="80" height="30" as="geometry" />
        </mxCell>
        <mxCell id="kpL3JhKYGGDNCPcOYrwn-84" style="edgeStyle=orthogonalEdgeStyle;rounded=0;orthogonalLoop=1;jettySize=auto;html=1;exitX=0.25;exitY=1;exitDx=0;exitDy=0;entryX=0.25;entryY=0;entryDx=0;entryDy=0;" parent="kpL3JhKYGGDNCPcOYrwn-91" source="kpL3JhKYGGDNCPcOYrwn-80" target="kpL3JhKYGGDNCPcOYrwn-76" edge="1">
          <mxGeometry relative="1" as="geometry">
            <Array as="points">
              <mxPoint x="365" y="75" />
              <mxPoint x="365" y="115" />
              <mxPoint x="15" y="115" />
              <mxPoint x="15" y="75" />
            </Array>
          </mxGeometry>
        </mxCell>
        <mxCell id="kpL3JhKYGGDNCPcOYrwn-80" value="" style="verticalLabelPosition=middle;verticalAlign=middle;html=1;shape=trapezoid;perimeter=trapezoidPerimeter;whiteSpace=wrap;size=0.1875;arcSize=10;flipV=0;labelPosition=center;align=center;rotation=-90;flipH=0;" parent="kpL3JhKYGGDNCPcOYrwn-91" vertex="1">
          <mxGeometry x="290" y="40" width="80" height="30" as="geometry" />
        </mxCell>
        <mxCell id="kpL3JhKYGGDNCPcOYrwn-89" value="" style="endArrow=classic;html=1;rounded=0;exitX=0.75;exitY=1;exitDx=0;exitDy=0;" parent="kpL3JhKYGGDNCPcOYrwn-91" source="kpL3JhKYGGDNCPcOYrwn-80" edge="1">
          <mxGeometry width="50" height="50" relative="1" as="geometry">
            <mxPoint x="340" y="35" as="sourcePoint" />
            <mxPoint x="380" y="35" as="targetPoint" />
          </mxGeometry>
        </mxCell>
        <mxCell id="kpL3JhKYGGDNCPcOYrwn-90" value="" style="endArrow=classic;html=1;rounded=0;exitX=0.75;exitY=1;exitDx=0;exitDy=0;" parent="kpL3JhKYGGDNCPcOYrwn-91" edge="1">
          <mxGeometry width="50" height="50" relative="1" as="geometry">
            <mxPoint y="35" as="sourcePoint" />
            <mxPoint x="35" y="35" as="targetPoint" />
          </mxGeometry>
        </mxCell>
        <mxCell id="kpL3JhKYGGDNCPcOYrwn-92" style="edgeStyle=orthogonalEdgeStyle;rounded=0;orthogonalLoop=1;jettySize=auto;html=1;exitX=0.25;exitY=1;exitDx=0;exitDy=0;strokeWidth=2;" parent="1" source="kpL3JhKYGGDNCPcOYrwn-9" target="kpL3JhKYGGDNCPcOYrwn-85" edge="1">
          <mxGeometry relative="1" as="geometry">
            <Array as="points">
              <mxPoint x="620" y="120" />
            </Array>
          </mxGeometry>
        </mxCell>
        <mxCell id="F1Z5j1O0vXJ2bHmUh1ND-9" value="NEW_PC" style="edgeLabel;html=1;align=center;verticalAlign=middle;resizable=0;points=[];" parent="kpL3JhKYGGDNCPcOYrwn-92" vertex="1" connectable="0">
          <mxGeometry relative="1" as="geometry">
            <mxPoint as="offset" />
          </mxGeometry>
        </mxCell>
        <mxCell id="kpL3JhKYGGDNCPcOYrwn-93" style="edgeStyle=orthogonalEdgeStyle;rounded=0;orthogonalLoop=1;jettySize=auto;html=1;entryX=0.25;entryY=0;entryDx=0;entryDy=0;strokeWidth=2;" parent="1" source="kpL3JhKYGGDNCPcOYrwn-85" target="kpL3JhKYGGDNCPcOYrwn-11" edge="1">
          <mxGeometry relative="1" as="geometry">
            <Array as="points">
              <mxPoint x="720" y="120" />
            </Array>
          </mxGeometry>
        </mxCell>
        <mxCell id="F1Z5j1O0vXJ2bHmUh1ND-10" value="NEXT_PC" style="edgeLabel;html=1;align=center;verticalAlign=middle;resizable=0;points=[];" parent="kpL3JhKYGGDNCPcOYrwn-93" vertex="1" connectable="0">
          <mxGeometry relative="1" as="geometry">
            <mxPoint as="offset" />
          </mxGeometry>
        </mxCell>
        <mxCell id="kpL3JhKYGGDNCPcOYrwn-94" value="R" style="edgeStyle=orthogonalEdgeStyle;rounded=0;orthogonalLoop=1;jettySize=auto;html=1;exitX=0.25;exitY=0;exitDx=0;exitDy=0;entryX=0.75;entryY=0;entryDx=0;entryDy=0;" parent="1" edge="1">
          <mxGeometry relative="1" as="geometry">
            <mxPoint x="100" y="80" as="sourcePoint" />
            <mxPoint x="240" y="80" as="targetPoint" />
          </mxGeometry>
        </mxCell>
        <mxCell id="kpL3JhKYGGDNCPcOYrwn-95" value="RD" style="edgeLabel;html=1;align=center;verticalAlign=middle;resizable=0;points=[];" parent="kpL3JhKYGGDNCPcOYrwn-94" vertex="1" connectable="0">
          <mxGeometry relative="1" as="geometry">
            <mxPoint as="offset" />
          </mxGeometry>
        </mxCell>
        <mxCell id="ILtyUZUsakUtdtW_zUv3-11" value="" style="group" parent="1" vertex="1" connectable="0">
          <mxGeometry x="-40" y="60" width="40" height="80" as="geometry" />
        </mxCell>
        <mxCell id="ILtyUZUsakUtdtW_zUv3-5" value="IR" style="rounded=0;whiteSpace=wrap;html=1;container=0;" parent="ILtyUZUsakUtdtW_zUv3-11" vertex="1">
          <mxGeometry width="40" height="80" as="geometry" />
        </mxCell>
        <mxCell id="ILtyUZUsakUtdtW_zUv3-9" value="" style="verticalLabelPosition=bottom;verticalAlign=top;html=1;shape=mxgraph.basic.acute_triangle;dx=0.5;container=0;" parent="ILtyUZUsakUtdtW_zUv3-11" vertex="1">
          <mxGeometry y="60" width="40" height="20" as="geometry" />
        </mxCell>
        <mxCell id="ILtyUZUsakUtdtW_zUv3-12" style="edgeStyle=orthogonalEdgeStyle;rounded=0;orthogonalLoop=1;jettySize=auto;html=1;exitX=1;exitY=0.5;exitDx=0;exitDy=0;entryX=0.5;entryY=1;entryDx=0;entryDy=0;strokeWidth=2;" parent="1" source="ILtyUZUsakUtdtW_zUv3-5" target="nFlebC-8E2U5Z7Vgu-yv-4" edge="1">
          <mxGeometry relative="1" as="geometry" />
        </mxCell>
        <mxCell id="TYaZw21MfKf-qoarmeTp-3" value="" style="edgeStyle=orthogonalEdgeStyle;rounded=0;orthogonalLoop=1;jettySize=auto;html=1;" parent="1" source="kpL3JhKYGGDNCPcOYrwn-85" edge="1">
          <mxGeometry relative="1" as="geometry">
            <mxPoint x="1030" y="305" as="targetPoint" />
          </mxGeometry>
        </mxCell>
        <mxCell id="TYaZw21MfKf-qoarmeTp-4" value="NEXT_PC" style="edgeLabel;html=1;align=center;verticalAlign=middle;resizable=0;points=[];" parent="TYaZw21MfKf-qoarmeTp-3" vertex="1" connectable="0">
          <mxGeometry relative="1" as="geometry">
            <mxPoint as="offset" />
          </mxGeometry>
        </mxCell>
        <mxCell id="TYaZw21MfKf-qoarmeTp-5" value="" style="edgeStyle=orthogonalEdgeStyle;rounded=0;orthogonalLoop=1;jettySize=auto;html=1;exitX=0.999;exitY=0.39;exitDx=0;exitDy=0;exitPerimeter=0;" parent="1" source="kpL3JhKYGGDNCPcOYrwn-85" edge="1">
          <mxGeometry relative="1" as="geometry">
            <mxPoint x="950" y="315" as="sourcePoint" />
            <mxPoint x="1030" y="290" as="targetPoint" />
          </mxGeometry>
        </mxCell>
        <mxCell id="TYaZw21MfKf-qoarmeTp-6" value="PC" style="edgeLabel;html=1;align=center;verticalAlign=middle;resizable=0;points=[];" parent="TYaZw21MfKf-qoarmeTp-5" vertex="1" connectable="0">
          <mxGeometry relative="1" as="geometry">
            <mxPoint as="offset" />
          </mxGeometry>
        </mxCell>
        <mxCell id="nvjk1FdQRk36nMy8JmEz-1" value="ROM" style="rounded=0;whiteSpace=wrap;html=1;flipV=0;" parent="1" vertex="1">
          <mxGeometry x="-160" y="20" width="40" height="320" as="geometry" />
        </mxCell>
        <mxCell id="nvjk1FdQRk36nMy8JmEz-2" style="edgeStyle=orthogonalEdgeStyle;rounded=0;orthogonalLoop=1;jettySize=auto;html=1;strokeWidth=2;entryX=1;entryY=0.406;entryDx=0;entryDy=0;entryPerimeter=0;" parent="1" target="nvjk1FdQRk36nMy8JmEz-1" edge="1">
          <mxGeometry relative="1" as="geometry">
            <mxPoint x="-99.99999999999997" y="159.96000000000018" as="targetPoint" />
            <mxPoint x="-40" y="150" as="sourcePoint" />
          </mxGeometry>
        </mxCell>
        <mxCell id="nvjk1FdQRk36nMy8JmEz-3" value="PC" style="edgeLabel;html=1;align=center;verticalAlign=middle;resizable=0;points=[];" parent="nvjk1FdQRk36nMy8JmEz-2" vertex="1" connectable="0">
          <mxGeometry relative="1" as="geometry">
            <mxPoint as="offset" />
          </mxGeometry>
        </mxCell>
        <mxCell id="F1Z5j1O0vXJ2bHmUh1ND-2" style="edgeStyle=orthogonalEdgeStyle;rounded=0;orthogonalLoop=1;jettySize=auto;html=1;entryX=0.75;entryY=1;entryDx=0;entryDy=0;exitX=0.5;exitY=1;exitDx=0;exitDy=0;strokeWidth=2;" parent="1" source="F1Z5j1O0vXJ2bHmUh1ND-6" target="rwtQKl1CALkP6kY6kDD2-2" edge="1">
          <mxGeometry relative="1" as="geometry">
            <mxPoint x="440" y="145" as="sourcePoint" />
            <Array as="points">
              <mxPoint x="460" y="135" />
              <mxPoint x="460" y="130" />
            </Array>
          </mxGeometry>
        </mxCell>
        <mxCell id="F1Z5j1O0vXJ2bHmUh1ND-3" value="" style="endArrow=classic;html=1;rounded=0;entryX=0.25;entryY=0;entryDx=0;entryDy=0;strokeWidth=2;" parent="1" target="F1Z5j1O0vXJ2bHmUh1ND-6" edge="1">
          <mxGeometry width="50" height="50" relative="1" as="geometry">
            <mxPoint x="390" y="190" as="sourcePoint" />
            <mxPoint x="410" y="160" as="targetPoint" />
            <Array as="points">
              <mxPoint x="390" y="150" />
            </Array>
          </mxGeometry>
        </mxCell>
        <mxCell id="F1Z5j1O0vXJ2bHmUh1ND-4" value="PC" style="edgeLabel;html=1;align=center;verticalAlign=middle;resizable=0;points=[];" parent="F1Z5j1O0vXJ2bHmUh1ND-3" vertex="1" connectable="0">
          <mxGeometry relative="1" as="geometry">
            <mxPoint y="13" as="offset" />
          </mxGeometry>
        </mxCell>
        <mxCell id="F1Z5j1O0vXJ2bHmUh1ND-6" value="" style="verticalLabelPosition=middle;verticalAlign=middle;html=1;shape=trapezoid;perimeter=trapezoidPerimeter;whiteSpace=wrap;size=0.1875;arcSize=10;flipV=1;labelPosition=center;align=center;rotation=-90;" parent="1" vertex="1">
          <mxGeometry x="400" y="120" width="60" height="30" as="geometry" />
        </mxCell>
        <mxCell id="F1Z5j1O0vXJ2bHmUh1ND-20" value="" style="group" parent="1" vertex="1" connectable="0">
          <mxGeometry x="40" y="40" width="60" height="120" as="geometry" />
        </mxCell>
        <mxCell id="nFlebC-8E2U5Z7Vgu-yv-4" value="DECODER" style="rounded=0;whiteSpace=wrap;html=1;rotation=90;" parent="F1Z5j1O0vXJ2bHmUh1ND-20" vertex="1">
          <mxGeometry x="-30" y="30" width="120" height="60" as="geometry" />
        </mxCell>
        <mxCell id="nFlebC-8E2U5Z7Vgu-yv-1" value="" style="shape=manualInput;whiteSpace=wrap;html=1;size=13;" parent="F1Z5j1O0vXJ2bHmUh1ND-20" vertex="1">
          <mxGeometry x="50" y="5" width="10" height="20" as="geometry" />
        </mxCell>
        <mxCell id="6tUuJPWFfSyjMbYEvz0a-6" style="edgeStyle=orthogonalEdgeStyle;rounded=0;orthogonalLoop=1;jettySize=auto;html=1;exitX=0.25;exitY=1;exitDx=0;exitDy=0;entryX=1;entryY=0.5;entryDx=0;entryDy=0;" parent="1" source="6tUuJPWFfSyjMbYEvz0a-1" target="6tUuJPWFfSyjMbYEvz0a-3" edge="1">
          <mxGeometry relative="1" as="geometry" />
        </mxCell>
        <mxCell id="6tUuJPWFfSyjMbYEvz0a-1" value="COMP. UNIT" style="rounded=0;whiteSpace=wrap;html=1;direction=north;textDirection=vertical-lr;" parent="1" vertex="1">
          <mxGeometry x="410" y="260" width="60" height="120" as="geometry" />
        </mxCell>
        <mxCell id="kpL3JhKYGGDNCPcOYrwn-70" value="STEP" style="text;html=1;align=center;verticalAlign=middle;resizable=0;points=[];autosize=1;strokeColor=none;fillColor=none;" parent="1" vertex="1">
          <mxGeometry x="755" y="380" width="50" height="30" as="geometry" />
        </mxCell>
        <mxCell id="kpL3JhKYGGDNCPcOYrwn-69" style="edgeStyle=orthogonalEdgeStyle;rounded=0;orthogonalLoop=1;jettySize=auto;html=1;" parent="1" source="kpL3JhKYGGDNCPcOYrwn-70" target="kpL3JhKYGGDNCPcOYrwn-68" edge="1">
          <mxGeometry relative="1" as="geometry">
            <Array as="points">
              <mxPoint x="780" y="325" />
            </Array>
          </mxGeometry>
        </mxCell>
        <mxCell id="6tUuJPWFfSyjMbYEvz0a-5" style="edgeStyle=orthogonalEdgeStyle;rounded=0;orthogonalLoop=1;jettySize=auto;html=1;" parent="1" source="6tUuJPWFfSyjMbYEvz0a-3" target="6tUuJPWFfSyjMbYEvz0a-4" edge="1">
          <mxGeometry relative="1" as="geometry" />
        </mxCell>
        <mxCell id="6tUuJPWFfSyjMbYEvz0a-3" value="" style="verticalLabelPosition=middle;verticalAlign=middle;html=1;shape=trapezoid;perimeter=trapezoidPerimeter;whiteSpace=wrap;size=0.1875;arcSize=10;flipV=1;labelPosition=center;align=center;rotation=-90;" parent="1" vertex="1">
          <mxGeometry x="460" y="430" width="60" height="30" as="geometry" />
        </mxCell>
        <mxCell id="6tUuJPWFfSyjMbYEvz0a-4" value="STEP" style="text;html=1;align=center;verticalAlign=middle;resizable=0;points=[];autosize=1;strokeColor=none;fillColor=none;" parent="1" vertex="1">
          <mxGeometry x="530" y="430" width="50" height="30" as="geometry" />
        </mxCell>
        <mxCell id="6tUuJPWFfSyjMbYEvz0a-7" style="edgeStyle=orthogonalEdgeStyle;rounded=0;orthogonalLoop=1;jettySize=auto;html=1;entryX=0.25;entryY=0;entryDx=0;entryDy=0;strokeWidth=2;exitX=0.25;exitY=1;exitDx=0;exitDy=0;fillColor=#1ba1e2;strokeColor=#006EAF;" parent="1" source="sHq0dSv3WL6oQNOAlgIy-1" target="6tUuJPWFfSyjMbYEvz0a-1" edge="1">
          <mxGeometry relative="1" as="geometry">
            <mxPoint x="397" y="349.26" as="targetPoint" />
            <mxPoint x="330" y="350" as="sourcePoint" />
            <Array as="points">
              <mxPoint x="320" y="130" />
              <mxPoint x="320" y="350" />
            </Array>
          </mxGeometry>
        </mxCell>
        <mxCell id="6tUuJPWFfSyjMbYEvz0a-8" value="R1" style="edgeLabel;html=1;align=center;verticalAlign=middle;resizable=0;points=[];" parent="6tUuJPWFfSyjMbYEvz0a-7" vertex="1" connectable="0">
          <mxGeometry relative="1" as="geometry">
            <mxPoint x="65" y="75" as="offset" />
          </mxGeometry>
        </mxCell>
        <mxCell id="6tUuJPWFfSyjMbYEvz0a-9" style="edgeStyle=orthogonalEdgeStyle;rounded=0;orthogonalLoop=1;jettySize=auto;html=1;entryX=0.75;entryY=0;entryDx=0;entryDy=0;strokeWidth=2;exitX=0.75;exitY=1;exitDx=0;exitDy=0;fillColor=#60a917;strokeColor=#2D7600;" parent="1" source="sHq0dSv3WL6oQNOAlgIy-1" target="6tUuJPWFfSyjMbYEvz0a-1" edge="1">
          <mxGeometry relative="1" as="geometry">
            <mxPoint x="317" y="289.26" as="targetPoint" />
            <mxPoint x="330" y="290" as="sourcePoint" />
            <Array as="points">
              <mxPoint x="330" y="70" />
              <mxPoint x="330" y="290" />
            </Array>
          </mxGeometry>
        </mxCell>
        <mxCell id="6tUuJPWFfSyjMbYEvz0a-18" value="R2" style="edgeLabel;html=1;align=center;verticalAlign=middle;resizable=0;points=[];" parent="6tUuJPWFfSyjMbYEvz0a-9" vertex="1" connectable="0">
          <mxGeometry relative="1" as="geometry">
            <mxPoint x="55" y="85" as="offset" />
          </mxGeometry>
        </mxCell>
        <mxCell id="6tUuJPWFfSyjMbYEvz0a-11" style="edgeStyle=orthogonalEdgeStyle;rounded=0;orthogonalLoop=1;jettySize=auto;html=1;exitX=0.75;exitY=0;exitDx=0;exitDy=0;entryX=0;entryY=0.5;entryDx=0;entryDy=0;" parent="1" source="nFlebC-8E2U5Z7Vgu-yv-4" target="6tUuJPWFfSyjMbYEvz0a-1" edge="1">
          <mxGeometry relative="1" as="geometry">
            <Array as="points">
              <mxPoint x="190" y="130" />
              <mxPoint x="190" y="400" />
              <mxPoint x="440" y="400" />
            </Array>
          </mxGeometry>
        </mxCell>
        <mxCell id="6tUuJPWFfSyjMbYEvz0a-12" value="COMP" style="edgeLabel;html=1;align=center;verticalAlign=middle;resizable=0;points=[];" parent="6tUuJPWFfSyjMbYEvz0a-11" vertex="1" connectable="0">
          <mxGeometry relative="1" as="geometry">
            <mxPoint as="offset" />
          </mxGeometry>
        </mxCell>
        <mxCell id="6tUuJPWFfSyjMbYEvz0a-14" style="edgeStyle=orthogonalEdgeStyle;rounded=0;orthogonalLoop=1;jettySize=auto;html=1;entryX=0.75;entryY=0;entryDx=0;entryDy=0;strokeWidth=2;" parent="1" target="6tUuJPWFfSyjMbYEvz0a-3" edge="1">
          <mxGeometry relative="1" as="geometry">
            <mxPoint x="460" y="429.52" as="targetPoint" />
            <mxPoint x="400" y="430" as="sourcePoint" />
          </mxGeometry>
        </mxCell>
        <mxCell id="6tUuJPWFfSyjMbYEvz0a-15" value="&lt;span style=&quot;font-size: 12px;&quot;&gt;INS_SIZE&lt;/span&gt;" style="edgeLabel;html=1;align=center;verticalAlign=middle;resizable=0;points=[];fontColor=default;labelBackgroundColor=default;" parent="6tUuJPWFfSyjMbYEvz0a-14" vertex="1" connectable="0">
          <mxGeometry relative="1" as="geometry">
            <mxPoint as="offset" />
          </mxGeometry>
        </mxCell>
        <mxCell id="6tUuJPWFfSyjMbYEvz0a-16" style="edgeStyle=orthogonalEdgeStyle;rounded=0;orthogonalLoop=1;jettySize=auto;html=1;strokeWidth=2;entryX=0.25;entryY=0;entryDx=0;entryDy=0;" parent="1" target="6tUuJPWFfSyjMbYEvz0a-3" edge="1">
          <mxGeometry relative="1" as="geometry">
            <mxPoint x="420" y="330" as="targetPoint" />
            <mxPoint x="400" y="460" as="sourcePoint" />
          </mxGeometry>
        </mxCell>
        <mxCell id="6tUuJPWFfSyjMbYEvz0a-17" value="&lt;span style=&quot;font-size: 12px;&quot;&gt;IMM&lt;/span&gt;" style="edgeLabel;html=1;align=center;verticalAlign=middle;resizable=0;points=[];fontColor=default;labelBackgroundColor=default;" parent="6tUuJPWFfSyjMbYEvz0a-16" vertex="1" connectable="0">
          <mxGeometry relative="1" as="geometry">
            <mxPoint as="offset" />
          </mxGeometry>
        </mxCell>
        <mxCell id="kpL3JhKYGGDNCPcOYrwn-5" style="edgeStyle=orthogonalEdgeStyle;rounded=0;orthogonalLoop=1;jettySize=auto;html=1;entryX=0.25;entryY=0;entryDx=0;entryDy=0;strokeWidth=2;exitX=0.75;exitY=1;exitDx=0;exitDy=0;fillColor=#60a917;strokeColor=#2D7600;" parent="1" source="sHq0dSv3WL6oQNOAlgIy-1" target="kpL3JhKYGGDNCPcOYrwn-3" edge="1">
          <mxGeometry relative="1" as="geometry">
            <mxPoint x="335" y="60" as="targetPoint" />
            <mxPoint x="310" y="60" as="sourcePoint" />
            <Array as="points">
              <mxPoint x="330" y="70" />
              <mxPoint x="330" y="75" />
            </Array>
          </mxGeometry>
        </mxCell>
        <mxCell id="kpL3JhKYGGDNCPcOYrwn-54" value="R2" style="edgeLabel;html=1;align=center;verticalAlign=middle;resizable=0;points=[];labelBackgroundColor=default;fontColor=default;textShadow=0;labelBorderColor=none;" parent="kpL3JhKYGGDNCPcOYrwn-5" vertex="1" connectable="0">
          <mxGeometry relative="1" as="geometry">
            <mxPoint as="offset" />
          </mxGeometry>
        </mxCell>
      </root>
    </mxGraphModel>
  </diagram>
  <diagram id="SZAx_SqoBJcESYMJ47G2" name="System">
    <mxGraphModel dx="2251" dy="1965" grid="1" gridSize="10" guides="1" tooltips="1" connect="1" arrows="1" fold="1" page="1" pageScale="1" pageWidth="827" pageHeight="1169" math="0" shadow="0">
      <root>
        <mxCell id="0" />
        <mxCell id="1" parent="0" />
        <mxCell id="Nnbd3_QBLv7Jj-xSeTyt-8" value="FPGA" style="rounded=0;whiteSpace=wrap;html=1;fillColor=none;fontColor=#333333;strokeColor=default;movable=0;resizable=0;rotatable=0;deletable=0;editable=0;locked=1;connectable=0;labelPosition=center;verticalLabelPosition=top;align=center;verticalAlign=bottom;" parent="1" vertex="1">
          <mxGeometry x="80" y="10" width="740" height="500" as="geometry" />
        </mxCell>
        <mxCell id="yTu13kFuIQBESadn3DpL-9" style="edgeStyle=orthogonalEdgeStyle;rounded=0;orthogonalLoop=1;jettySize=auto;html=1;" parent="1" edge="1">
          <mxGeometry relative="1" as="geometry">
            <mxPoint x="360" y="60" as="sourcePoint" />
            <mxPoint x="480" y="60" as="targetPoint" />
            <Array as="points">
              <mxPoint x="390" y="60" />
              <mxPoint x="390" y="60" />
            </Array>
          </mxGeometry>
        </mxCell>
        <mxCell id="yTu13kFuIQBESadn3DpL-10" value="DATA" style="edgeLabel;html=1;align=center;verticalAlign=middle;resizable=0;points=[];" parent="yTu13kFuIQBESadn3DpL-9" vertex="1" connectable="0">
          <mxGeometry relative="1" as="geometry">
            <mxPoint as="offset" />
          </mxGeometry>
        </mxCell>
        <mxCell id="yTu13kFuIQBESadn3DpL-11" style="edgeStyle=orthogonalEdgeStyle;rounded=0;orthogonalLoop=1;jettySize=auto;html=1;" parent="1" edge="1">
          <mxGeometry relative="1" as="geometry">
            <mxPoint x="480" y="50" as="sourcePoint" />
            <mxPoint x="360" y="50" as="targetPoint" />
            <Array as="points">
              <mxPoint x="380" y="50" />
              <mxPoint x="380" y="50" />
            </Array>
          </mxGeometry>
        </mxCell>
        <mxCell id="yTu13kFuIQBESadn3DpL-12" value="ADDR" style="edgeLabel;html=1;align=center;verticalAlign=middle;resizable=0;points=[];" parent="yTu13kFuIQBESadn3DpL-11" vertex="1" connectable="0">
          <mxGeometry relative="1" as="geometry">
            <mxPoint as="offset" />
          </mxGeometry>
        </mxCell>
        <mxCell id="yTu13kFuIQBESadn3DpL-13" style="edgeStyle=orthogonalEdgeStyle;rounded=0;orthogonalLoop=1;jettySize=auto;html=1;" parent="1" source="yTu13kFuIQBESadn3DpL-1" target="yTu13kFuIQBESadn3DpL-5" edge="1">
          <mxGeometry relative="1" as="geometry">
            <Array as="points">
              <mxPoint x="410" y="70" />
              <mxPoint x="410" y="70" />
            </Array>
          </mxGeometry>
        </mxCell>
        <mxCell id="yTu13kFuIQBESadn3DpL-14" value="CNT" style="edgeLabel;html=1;align=center;verticalAlign=middle;resizable=0;points=[];" parent="yTu13kFuIQBESadn3DpL-13" vertex="1" connectable="0">
          <mxGeometry relative="1" as="geometry">
            <mxPoint as="offset" />
          </mxGeometry>
        </mxCell>
        <mxCell id="Nnbd3_QBLv7Jj-xSeTyt-7" style="edgeStyle=orthogonalEdgeStyle;rounded=0;orthogonalLoop=1;jettySize=auto;html=1;startArrow=classic;startFill=1;" parent="1" source="yTu13kFuIQBESadn3DpL-1" target="yTu13kFuIQBESadn3DpL-2" edge="1">
          <mxGeometry relative="1" as="geometry" />
        </mxCell>
        <mxCell id="yTu13kFuIQBESadn3DpL-1" value="ICACHE" style="whiteSpace=wrap;html=1;aspect=fixed;sketch=1;curveFitting=1;jiggle=2;" parent="1" vertex="1">
          <mxGeometry x="480" y="40" width="80" height="80" as="geometry" />
        </mxCell>
        <mxCell id="yTu13kFuIQBESadn3DpL-2" value="DCACHE" style="whiteSpace=wrap;html=1;aspect=fixed;sketch=1;curveFitting=1;jiggle=2;" parent="1" vertex="1">
          <mxGeometry x="480" y="160" width="80" height="80" as="geometry" />
        </mxCell>
        <mxCell id="yTu13kFuIQBESadn3DpL-19" style="edgeStyle=orthogonalEdgeStyle;rounded=0;orthogonalLoop=1;jettySize=auto;html=1;startArrow=classic;startFill=1;strokeWidth=3;" parent="1" source="yTu13kFuIQBESadn3DpL-3" target="yTu13kFuIQBESadn3DpL-18" edge="1">
          <mxGeometry relative="1" as="geometry" />
        </mxCell>
        <mxCell id="yTu13kFuIQBESadn3DpL-3" value="2MB RAM" style="whiteSpace=wrap;html=1;aspect=fixed;sketch=1;curveFitting=1;jiggle=2;" parent="1" vertex="1">
          <mxGeometry x="-200" y="10" width="200" height="200" as="geometry" />
        </mxCell>
        <mxCell id="yTu13kFuIQBESadn3DpL-5" value="BUS" style="rounded=0;whiteSpace=wrap;html=1;textDirection=vertical-lr;" parent="1" vertex="1">
          <mxGeometry x="320" y="40" width="40" height="420" as="geometry" />
        </mxCell>
        <mxCell id="yTu13kFuIQBESadn3DpL-17" value="CNT=control signals&lt;br&gt;write/~read and req" style="text;html=1;align=center;verticalAlign=middle;resizable=0;points=[];autosize=1;strokeColor=none;fillColor=none;" parent="1" vertex="1">
          <mxGeometry x="670" y="20" width="140" height="40" as="geometry" />
        </mxCell>
        <mxCell id="Nnbd3_QBLv7Jj-xSeTyt-10" style="edgeStyle=orthogonalEdgeStyle;rounded=0;orthogonalLoop=1;jettySize=auto;html=1;startArrow=classic;startFill=1;strokeWidth=2;" parent="1" source="yTu13kFuIQBESadn3DpL-18" target="yTu13kFuIQBESadn3DpL-5" edge="1">
          <mxGeometry relative="1" as="geometry" />
        </mxCell>
        <mxCell id="yTu13kFuIQBESadn3DpL-18" value="DRAM CNT" style="rounded=0;whiteSpace=wrap;html=1;" parent="1" vertex="1">
          <mxGeometry x="120" y="80" width="120" height="60" as="geometry" />
        </mxCell>
        <mxCell id="Nnbd3_QBLv7Jj-xSeTyt-1" style="edgeStyle=orthogonalEdgeStyle;rounded=0;orthogonalLoop=1;jettySize=auto;html=1;startArrow=classic;startFill=1;" parent="1" edge="1">
          <mxGeometry relative="1" as="geometry">
            <mxPoint x="360" y="180" as="sourcePoint" />
            <mxPoint x="480" y="180" as="targetPoint" />
            <Array as="points">
              <mxPoint x="390" y="180" />
              <mxPoint x="390" y="180" />
            </Array>
          </mxGeometry>
        </mxCell>
        <mxCell id="Nnbd3_QBLv7Jj-xSeTyt-2" value="DATA" style="edgeLabel;html=1;align=center;verticalAlign=middle;resizable=0;points=[];" parent="Nnbd3_QBLv7Jj-xSeTyt-1" vertex="1" connectable="0">
          <mxGeometry relative="1" as="geometry">
            <mxPoint as="offset" />
          </mxGeometry>
        </mxCell>
        <mxCell id="Nnbd3_QBLv7Jj-xSeTyt-3" style="edgeStyle=orthogonalEdgeStyle;rounded=0;orthogonalLoop=1;jettySize=auto;html=1;" parent="1" edge="1">
          <mxGeometry relative="1" as="geometry">
            <mxPoint x="480" y="170" as="sourcePoint" />
            <mxPoint x="360" y="170" as="targetPoint" />
            <Array as="points">
              <mxPoint x="380" y="170" />
              <mxPoint x="380" y="170" />
            </Array>
          </mxGeometry>
        </mxCell>
        <mxCell id="Nnbd3_QBLv7Jj-xSeTyt-4" value="ADDR" style="edgeLabel;html=1;align=center;verticalAlign=middle;resizable=0;points=[];" parent="Nnbd3_QBLv7Jj-xSeTyt-3" vertex="1" connectable="0">
          <mxGeometry relative="1" as="geometry">
            <mxPoint as="offset" />
          </mxGeometry>
        </mxCell>
        <mxCell id="Nnbd3_QBLv7Jj-xSeTyt-5" style="edgeStyle=orthogonalEdgeStyle;rounded=0;orthogonalLoop=1;jettySize=auto;html=1;" parent="1" edge="1">
          <mxGeometry relative="1" as="geometry">
            <Array as="points">
              <mxPoint x="410" y="190" />
              <mxPoint x="410" y="190" />
            </Array>
            <mxPoint x="480" y="190" as="sourcePoint" />
            <mxPoint x="360" y="190" as="targetPoint" />
          </mxGeometry>
        </mxCell>
        <mxCell id="Nnbd3_QBLv7Jj-xSeTyt-6" value="CNT" style="edgeLabel;html=1;align=center;verticalAlign=middle;resizable=0;points=[];" parent="Nnbd3_QBLv7Jj-xSeTyt-5" vertex="1" connectable="0">
          <mxGeometry relative="1" as="geometry">
            <mxPoint as="offset" />
          </mxGeometry>
        </mxCell>
        <mxCell id="Nnbd3_QBLv7Jj-xSeTyt-13" style="edgeStyle=orthogonalEdgeStyle;rounded=0;orthogonalLoop=1;jettySize=auto;html=1;startArrow=classic;startFill=1;exitX=0;exitY=0.25;exitDx=0;exitDy=0;" parent="1" source="Nnbd3_QBLv7Jj-xSeTyt-11" target="yTu13kFuIQBESadn3DpL-1" edge="1">
          <mxGeometry relative="1" as="geometry" />
        </mxCell>
        <mxCell id="Nnbd3_QBLv7Jj-xSeTyt-14" style="edgeStyle=orthogonalEdgeStyle;rounded=0;orthogonalLoop=1;jettySize=auto;html=1;startArrow=classic;startFill=1;exitX=0;exitY=0.75;exitDx=0;exitDy=0;" parent="1" source="Nnbd3_QBLv7Jj-xSeTyt-11" target="yTu13kFuIQBESadn3DpL-2" edge="1">
          <mxGeometry relative="1" as="geometry" />
        </mxCell>
        <mxCell id="Nnbd3_QBLv7Jj-xSeTyt-11" value="CORE" style="whiteSpace=wrap;html=1;aspect=fixed;sketch=1;curveFitting=1;jiggle=2;" parent="1" vertex="1">
          <mxGeometry x="640" y="100" width="80" height="80" as="geometry" />
        </mxCell>
        <mxCell id="_aQj_42ov0IA-WdRDPqf-1" value="ROM" style="whiteSpace=wrap;html=1;aspect=fixed;sketch=1;curveFitting=1;jiggle=2;" parent="1" vertex="1">
          <mxGeometry x="480" y="280" width="80" height="80" as="geometry" />
        </mxCell>
        <mxCell id="_aQj_42ov0IA-WdRDPqf-2" style="edgeStyle=orthogonalEdgeStyle;rounded=0;orthogonalLoop=1;jettySize=auto;html=1;entryX=1;entryY=0.667;entryDx=0;entryDy=0;entryPerimeter=0;" parent="1" source="_aQj_42ov0IA-WdRDPqf-1" target="yTu13kFuIQBESadn3DpL-5" edge="1">
          <mxGeometry relative="1" as="geometry" />
        </mxCell>
      </root>
    </mxGraphModel>
  </diagram>
  <diagram id="zZDvlwwLucYcBtm3ryou" name="Page-4">
    <mxGraphModel dx="982" dy="549" grid="1" gridSize="10" guides="1" tooltips="1" connect="1" arrows="1" fold="1" page="1" pageScale="1" pageWidth="827" pageHeight="1169" math="0" shadow="0">
      <root>
        <mxCell id="0" />
        <mxCell id="1" parent="0" />
        <mxCell id="V-msyZLWl372bgbTkD-r-3" value="" style="edgeStyle=orthogonalEdgeStyle;rounded=0;orthogonalLoop=1;jettySize=auto;html=1;" parent="1" target="V-msyZLWl372bgbTkD-r-1" edge="1">
          <mxGeometry relative="1" as="geometry">
            <mxPoint x="40" y="80" as="sourcePoint" />
          </mxGeometry>
        </mxCell>
        <mxCell id="V-msyZLWl372bgbTkD-r-4" value="RST" style="edgeLabel;html=1;align=center;verticalAlign=middle;resizable=0;points=[];" parent="V-msyZLWl372bgbTkD-r-3" vertex="1" connectable="0">
          <mxGeometry relative="1" as="geometry">
            <mxPoint as="offset" />
          </mxGeometry>
        </mxCell>
        <mxCell id="V-msyZLWl372bgbTkD-r-6" value="" style="edgeStyle=orthogonalEdgeStyle;rounded=0;orthogonalLoop=1;jettySize=auto;html=1;" parent="1" source="V-msyZLWl372bgbTkD-r-1" target="V-msyZLWl372bgbTkD-r-5" edge="1">
          <mxGeometry relative="1" as="geometry" />
        </mxCell>
        <mxCell id="V-msyZLWl372bgbTkD-r-1" value="" style="strokeWidth=2;html=1;shape=mxgraph.flowchart.start_2;whiteSpace=wrap;" parent="1" vertex="1">
          <mxGeometry x="140" y="40" width="80" height="80" as="geometry" />
        </mxCell>
        <mxCell id="V-msyZLWl372bgbTkD-r-8" value="" style="edgeStyle=orthogonalEdgeStyle;rounded=0;orthogonalLoop=1;jettySize=auto;html=1;" parent="1" source="V-msyZLWl372bgbTkD-r-5" target="V-msyZLWl372bgbTkD-r-7" edge="1">
          <mxGeometry relative="1" as="geometry" />
        </mxCell>
        <mxCell id="V-msyZLWl372bgbTkD-r-5" value="IADDR -&amp;gt;" style="strokeWidth=2;html=1;shape=mxgraph.flowchart.start_2;whiteSpace=wrap;" parent="1" vertex="1">
          <mxGeometry x="300" y="40" width="80" height="80" as="geometry" />
        </mxCell>
        <mxCell id="V-msyZLWl372bgbTkD-r-10" value="" style="edgeStyle=orthogonalEdgeStyle;rounded=0;orthogonalLoop=1;jettySize=auto;html=1;" parent="1" source="V-msyZLWl372bgbTkD-r-7" target="V-msyZLWl372bgbTkD-r-9" edge="1">
          <mxGeometry relative="1" as="geometry" />
        </mxCell>
        <mxCell id="V-msyZLWl372bgbTkD-r-7" value="IDATA &amp;lt;-" style="strokeWidth=2;html=1;shape=mxgraph.flowchart.start_2;whiteSpace=wrap;" parent="1" vertex="1">
          <mxGeometry x="460" y="40" width="80" height="80" as="geometry" />
        </mxCell>
        <mxCell id="V-msyZLWl372bgbTkD-r-9" value="EXEC" style="strokeWidth=2;html=1;shape=mxgraph.flowchart.start_2;whiteSpace=wrap;" parent="1" vertex="1">
          <mxGeometry x="620" y="40" width="80" height="80" as="geometry" />
        </mxCell>
        <mxCell id="V-msyZLWl372bgbTkD-r-11" style="edgeStyle=orthogonalEdgeStyle;rounded=0;orthogonalLoop=1;jettySize=auto;html=1;entryX=0.145;entryY=0.855;entryDx=0;entryDy=0;entryPerimeter=0;exitX=0.855;exitY=0.855;exitDx=0;exitDy=0;exitPerimeter=0;curved=1;" parent="1" source="V-msyZLWl372bgbTkD-r-9" target="V-msyZLWl372bgbTkD-r-9" edge="1">
          <mxGeometry relative="1" as="geometry">
            <Array as="points">
              <mxPoint x="688" y="180" />
              <mxPoint x="632" y="180" />
            </Array>
          </mxGeometry>
        </mxCell>
        <mxCell id="GzWvmZo69r_mHMThKqkj-5" value="" style="edgeStyle=orthogonalEdgeStyle;rounded=0;orthogonalLoop=1;jettySize=auto;html=1;" edge="1" parent="1" source="GzWvmZo69r_mHMThKqkj-1" target="GzWvmZo69r_mHMThKqkj-4">
          <mxGeometry relative="1" as="geometry" />
        </mxCell>
        <mxCell id="GzWvmZo69r_mHMThKqkj-7" value="" style="edgeStyle=orthogonalEdgeStyle;rounded=0;orthogonalLoop=1;jettySize=auto;html=1;" edge="1" parent="1" source="GzWvmZo69r_mHMThKqkj-1" target="GzWvmZo69r_mHMThKqkj-6">
          <mxGeometry relative="1" as="geometry">
            <Array as="points">
              <mxPoint x="180" y="390" />
            </Array>
          </mxGeometry>
        </mxCell>
        <mxCell id="GzWvmZo69r_mHMThKqkj-1" value="" style="strokeWidth=2;html=1;shape=mxgraph.flowchart.start_2;whiteSpace=wrap;" vertex="1" parent="1">
          <mxGeometry x="140" y="230" width="80" height="80" as="geometry" />
        </mxCell>
        <mxCell id="GzWvmZo69r_mHMThKqkj-2" value="" style="edgeStyle=orthogonalEdgeStyle;rounded=0;orthogonalLoop=1;jettySize=auto;html=1;entryX=0;entryY=0.5;entryDx=0;entryDy=0;entryPerimeter=0;" edge="1" parent="1" target="GzWvmZo69r_mHMThKqkj-1">
          <mxGeometry relative="1" as="geometry">
            <mxPoint x="40" y="270" as="sourcePoint" />
            <mxPoint x="150" y="90" as="targetPoint" />
          </mxGeometry>
        </mxCell>
        <mxCell id="GzWvmZo69r_mHMThKqkj-3" value="RST" style="edgeLabel;html=1;align=center;verticalAlign=middle;resizable=0;points=[];" vertex="1" connectable="0" parent="GzWvmZo69r_mHMThKqkj-2">
          <mxGeometry relative="1" as="geometry">
            <mxPoint as="offset" />
          </mxGeometry>
        </mxCell>
        <mxCell id="GzWvmZo69r_mHMThKqkj-4" value="ADDR OUT&lt;br&gt;DATA OUT&lt;br&gt;WE" style="strokeWidth=2;html=1;shape=mxgraph.flowchart.start_2;whiteSpace=wrap;" vertex="1" parent="1">
          <mxGeometry x="300" y="230" width="80" height="80" as="geometry" />
        </mxCell>
        <mxCell id="GzWvmZo69r_mHMThKqkj-6" value="ADDR OUT&lt;div&gt;RE&lt;/div&gt;" style="strokeWidth=2;html=1;shape=mxgraph.flowchart.start_2;whiteSpace=wrap;" vertex="1" parent="1">
          <mxGeometry x="300" y="350" width="80" height="80" as="geometry" />
        </mxCell>
      </root>
    </mxGraphModel>
  </diagram>
  <diagram id="V5gin6lazYXZQaEXg9eX" name="Page-5">
    <mxGraphModel dx="814" dy="455" grid="1" gridSize="10" guides="1" tooltips="1" connect="1" arrows="1" fold="1" page="1" pageScale="1" pageWidth="827" pageHeight="1169" math="0" shadow="0">
      <root>
        <mxCell id="0" />
        <mxCell id="1" parent="0" />
        <mxCell id="U15svDkZFYsV-lxJ-Sqg-3" style="edgeStyle=orthogonalEdgeStyle;rounded=0;orthogonalLoop=1;jettySize=auto;html=1;entryX=0.25;entryY=1;entryDx=0;entryDy=0;strokeWidth=2;" edge="1" parent="1" source="U15svDkZFYsV-lxJ-Sqg-1" target="U15svDkZFYsV-lxJ-Sqg-5">
          <mxGeometry relative="1" as="geometry">
            <mxPoint x="320" y="160" as="targetPoint" />
          </mxGeometry>
        </mxCell>
        <mxCell id="U15svDkZFYsV-lxJ-Sqg-1" value="ROM" style="rounded=0;whiteSpace=wrap;html=1;" vertex="1" parent="1">
          <mxGeometry x="180" y="110" width="60" height="100" as="geometry" />
        </mxCell>
        <mxCell id="U15svDkZFYsV-lxJ-Sqg-4" style="edgeStyle=orthogonalEdgeStyle;rounded=0;orthogonalLoop=1;jettySize=auto;html=1;entryX=0.75;entryY=1;entryDx=0;entryDy=0;startArrow=classic;startFill=1;strokeWidth=2;" edge="1" parent="1" source="U15svDkZFYsV-lxJ-Sqg-2" target="U15svDkZFYsV-lxJ-Sqg-5">
          <mxGeometry relative="1" as="geometry">
            <mxPoint x="320" y="240" as="targetPoint" />
          </mxGeometry>
        </mxCell>
        <mxCell id="U15svDkZFYsV-lxJ-Sqg-2" value="RAM" style="rounded=0;whiteSpace=wrap;html=1;" vertex="1" parent="1">
          <mxGeometry x="180" y="210" width="60" height="100" as="geometry" />
        </mxCell>
        <mxCell id="U15svDkZFYsV-lxJ-Sqg-5" value="BUS" style="rounded=0;whiteSpace=wrap;html=1;rotation=90;" vertex="1" parent="1">
          <mxGeometry x="260" y="190" width="160" height="20" as="geometry" />
        </mxCell>
        <mxCell id="U15svDkZFYsV-lxJ-Sqg-10" style="edgeStyle=orthogonalEdgeStyle;rounded=0;orthogonalLoop=1;jettySize=auto;html=1;entryX=0.5;entryY=0;entryDx=0;entryDy=0;startArrow=classic;startFill=1;strokeWidth=2;" edge="1" parent="1" source="U15svDkZFYsV-lxJ-Sqg-6" target="U15svDkZFYsV-lxJ-Sqg-5">
          <mxGeometry relative="1" as="geometry" />
        </mxCell>
        <mxCell id="U15svDkZFYsV-lxJ-Sqg-6" value="Xbar" style="rounded=0;whiteSpace=wrap;html=1;rotation=90;" vertex="1" parent="1">
          <mxGeometry x="380" y="180" width="160" height="40" as="geometry" />
        </mxCell>
        <mxCell id="U15svDkZFYsV-lxJ-Sqg-7" style="edgeStyle=orthogonalEdgeStyle;rounded=0;orthogonalLoop=1;jettySize=auto;html=1;entryX=0;entryY=0.25;entryDx=0;entryDy=0;exitX=0.25;exitY=0;exitDx=0;exitDy=0;strokeWidth=2;startArrow=none;startFill=0;" edge="1" parent="1" source="U15svDkZFYsV-lxJ-Sqg-6" target="U15svDkZFYsV-lxJ-Sqg-9">
          <mxGeometry relative="1" as="geometry" />
        </mxCell>
        <mxCell id="U15svDkZFYsV-lxJ-Sqg-8" style="edgeStyle=orthogonalEdgeStyle;rounded=0;orthogonalLoop=1;jettySize=auto;html=1;entryX=0;entryY=0.75;entryDx=0;entryDy=0;exitX=0.75;exitY=0;exitDx=0;exitDy=0;strokeWidth=2;startArrow=classic;startFill=1;" edge="1" parent="1" source="U15svDkZFYsV-lxJ-Sqg-6" target="U15svDkZFYsV-lxJ-Sqg-9">
          <mxGeometry relative="1" as="geometry" />
        </mxCell>
        <mxCell id="U15svDkZFYsV-lxJ-Sqg-9" value="CORE" style="rounded=0;whiteSpace=wrap;html=1;" vertex="1" parent="1">
          <mxGeometry x="560" y="150" width="100" height="100" as="geometry" />
        </mxCell>
      </root>
    </mxGraphModel>
  </diagram>
</mxfile>
